<?xml version="1.0" encoding="UTF-8" standalone="no"?>
<!-- Created with Inkscape (http://www.inkscape.org/) -->

<svg
   xmlns:dc="http://purl.org/dc/elements/1.1/"
   xmlns:cc="http://creativecommons.org/ns#"
   xmlns:rdf="http://www.w3.org/1999/02/22-rdf-syntax-ns#"
   xmlns:svg="http://www.w3.org/2000/svg"
   xmlns="http://www.w3.org/2000/svg"
   xmlns:sodipodi="http://sodipodi.sourceforge.net/DTD/sodipodi-0.dtd"
   xmlns:inkscape="http://www.inkscape.org/namespaces/inkscape"
   width="32"
   height="32"
   viewBox="0 0 8.4666665 8.4666669"
   version="1.1"
   id="svg8"
   inkscape:version="0.92.2 (5c3e80d, 2017-08-06)"
   sodipodi:docname="notification-new.svg">
  <defs
     id="defs2" />
  <sodipodi:namedview
     id="base"
     pagecolor="#ffffff"
     bordercolor="#666666"
     borderopacity="1.0"
     inkscape:pageopacity="0.0"
     inkscape:pageshadow="2"
     inkscape:zoom="16"
     inkscape:cx="5.3091127"
     inkscape:cy="22.762794"
     inkscape:document-units="mm"
     inkscape:current-layer="layer1"
     showgrid="false"
     units="px"
     inkscape:window-width="2560"
     inkscape:window-height="1017"
     inkscape:window-x="-8"
     inkscape:window-y="-8"
     inkscape:window-maximized="1"
     inkscape:pagecheckerboard="true"
     showguides="false" />
  <metadata
     id="metadata5">
    <rdf:RDF>
      <cc:Work
         rdf:about="">
        <dc:format>image/svg+xml</dc:format>
        <dc:type
           rdf:resource="http://purl.org/dc/dcmitype/StillImage" />
        <dc:title />
      </cc:Work>
    </rdf:RDF>
  </metadata>
  <g
     inkscape:label="Layer 1"
     inkscape:groupmode="layer"
     id="layer1"
     transform="translate(0,-288.53332)">
    <path
       style="fill:#72b9ed;fill-opacity:0.94117647;stroke-width:0.20294264"
       d="m 4.2498697,290.36475 a 0.36380211,0.30856792 0 0 0 -0.363802,0.30857 0.36380211,0.30856792 0 0 0 0.095601,0.20776 1.6458197,1.3959434 0 0 0 -1.1740885,0.68025 1.6458197,1.3959434 0 0 0 -0.2072225,0.52465 h -0.012402 v 1.63795 l -0.2232422,0.32085 -0.3343465,0.50229 0.6800619,0.005 0.5668905,-0.004 h 0.9554971 l -0.7307048,4.4e-4 a 0.73139572,0.62035169 0 0 0 0.3658693,0.53736 0.73139572,0.62035169 0 0 0 0.3488158,0.0828 0.73139572,0.62035169 0 0 0 0.01602,-4.3e-4 0.73139572,0.62035169 0 0 1 5.168e-4,0 0.73139572,0.62035169 0 0 1 5.167e-4,0 0.73139572,0.62035169 0 0 0 0.01602,4.3e-4 0.73139572,0.62035169 0 0 0 0.3488159,-0.0828 0.73139572,0.62035169 0 0 0 0.3658692,-0.53736 L 4.23385,294.54795 h 0.9554972 l 0.5668904,0.004 0.680062,-0.005 -0.3343466,-0.50229 -0.2232421,-0.32085 v -1.63795 h -0.012402 a 1.6458197,1.3959434 0 0 0 -0.2072224,-0.52465 1.6458197,1.3959434 0 0 0 -1.1451498,-0.67675 0.36380211,0.30856792 0 0 0 0.099735,-0.21126 0.36380211,0.30856792 0 0 0 -0.3638021,-0.30857 z"
       id="path3732"
       inkscape:connector-curvature="0" />
    <circle
       style="fill:#e58b8c;fill-opacity:0.94117647;stroke-width:0.26458332"
       id="path4874"
       cx="5.953125"
       cy="290.08774"
       r="0.85989583" />
  </g>
</svg>
